<svg width="72" height="51" viewBox="0 0 72 51" fill="none" xmlns="http://www.w3.org/2000/svg">
<g clip-path="url(#clip0_62_9)">
<path d="M0.0943298 21.4254V34.195L0.101877 33.2385C4.04695 33.269 13.1163 33.3242 17.3349 33.2899V21.4254H0.0943298Z" fill="#C2B280"/>
<path d="M19.1896 50.8438C19.4895 50.88 26.5911 51.6459 29.4249 46.0309C31.6172 41.6887 29.5909 38.7544 29.5022 38.6325L29.4626 38.5715C28.3476 36.75 26.159 35.9079 24.5195 35.5211C22.5026 35.0448 20.5197 35.0581 19.665 35.1381C18.1972 35.2791 1.97536 35.1572 0.0943298 35.1419V38.5353C0.0943298 45.3659 5.57706 50.9028 12.3409 50.9028H19.182L19.1896 50.8438Z" fill="#C2B280"/>
<path d="M54.4066 33.3566C58.6252 33.389 67.6946 33.3357 71.6396 33.3052L71.6547 35.2105C69.8058 35.2238 53.5463 35.3477 52.0765 35.2067C51.2237 35.1248 49.2408 35.1133 47.2221 35.5897C45.5825 35.9765 43.394 36.8186 42.2789 38.6401L42.2393 38.7011C42.1525 38.823 40.1262 41.7572 42.3167 46.0995C44.1411 49.7139 47.7333 50.6837 50.1427 50.9047H59.6591C66.4229 50.9047 71.9057 45.3678 71.9057 38.5372V21.4921H54.4066V33.3566Z" fill="#C2B280"/>
<path d="M59.6591 0.0952759H12.3409C5.57706 0.0952759 0.0943298 5.63217 0.0943298 12.4628V19.5201H24.2195C24.7138 19.5201 25.0892 19.3258 25.4006 18.9085C25.793 18.3846 26.0496 17.5348 26.1439 16.4506C26.1326 14.4272 25.1968 13.0172 23.861 13.0172H19.199V11.1119H23.861C26.3175 11.1119 28.0306 13.324 28.0306 16.4907L28.0268 16.5707C27.6608 20.9529 25.2402 21.4274 24.2176 21.4274H19.2197V33.2595C19.3367 33.2557 19.4273 33.2499 19.4858 33.2442C20.6876 33.1299 22.8384 33.1718 24.9459 33.6672C27.825 34.3455 29.8777 35.6507 31.0493 37.5446C31.3531 37.9828 33.7303 41.6925 31.104 46.8978C30.2588 48.5707 29.0155 49.9197 27.4382 50.9047H44.1958C42.6676 49.9254 41.462 48.5993 40.6356 46.9645C38.0093 41.7592 40.3866 38.0495 40.6903 37.6112C41.8619 35.7154 43.9147 34.4122 46.7938 33.7339C48.9012 33.2366 51.052 33.1947 52.2539 33.3109C52.3123 33.3166 52.4029 33.3223 52.5199 33.3262V21.494H47.522C46.4994 21.494 44.0807 21.0215 43.7128 16.6374L43.709 16.5573C43.709 13.3907 45.424 11.1786 47.8786 11.1786H52.5406V13.0839H47.8786C46.5428 13.0839 45.607 14.4939 45.5957 16.5173C45.6919 17.6015 45.9485 18.4512 46.3391 18.9752C46.6504 19.3925 47.0258 19.5868 47.5201 19.5868H71.9038V12.4628C71.9038 5.63217 66.421 0.0952759 59.6572 0.0952759H59.6591Z" fill="#C2B280"/>
</g>
<defs>
<clipPath id="clip0_62_9">
<rect width="72" height="51" fill="white"/>
</clipPath>
</defs>
</svg>
